<svg preserveAspectRatio="none" overflow="visible" style="display: block;" width="26.5" height="31.9689" viewBox="0 0 26.5 31.9689" fill="none" xmlns="http://www.w3.org/2000/svg">
<g id="Group">
<path id="Vector" d="M21.5 31.7344V12.9844L26 10.7344V29.4844L21.5 31.7344Z" fill="#6DC9F8" fill-opacity="0.28"/>
<path id="Vector_2" d="M0.5 19.8439V3.41147C0.5 2.84332 0.821 2.32393 1.32919 2.06984L3.99377 0.737544C4.6272 0.420819 5.37279 0.420819 6.00623 0.737544L24.7562 10.1125C25.5185 10.4937 26 11.2728 26 12.125V28.5574C26 29.1256 25.679 29.6449 25.1708 29.899L22.5062 31.2313C21.8727 31.5481 21.1272 31.5481 20.4938 31.2313L1.74377 21.8563C0.9815 21.4752 0.5 20.6961 0.5 19.8439Z" stroke="#3B82F6"/>
<path id="Vector_3" d="M10.6261 10.0561V7.36132L14.8651 5.24182" stroke="#3B82F6" stroke-linecap="round"/>
<path id="Vector_4" d="M5.75 7.64893V4.73443L9.86621 2.67632" stroke="#3B82F6" stroke-linecap="round"/>
<path id="Vector_5" d="M16.25 12.9562V9.9844L20.3219 7.94848" stroke="#3B82F6" stroke-linecap="round"/>
<path id="Vector_6" d="M0.500001 8.10943L21.5 18.6094L26 16.3594" stroke="#3B82F6"/>
<path id="Vector_7" d="M21.5 12.9844L25.6913 10.8888" stroke="#3B82F6"/>
<path id="Vector_8" d="M0.500001 2.48443L21.5 12.9844V31.7344" stroke="#3B82F6"/>
<path id="Vector_9" d="M9.96333 17.3437C9.99243 16.6611 10.4801 16.3716 11.0526 16.6972C11.6252 17.0229 12.0657 17.8404 12.0366 18.5229C12.0075 19.2055 11.5199 19.495 10.9473 19.1694C10.3748 18.8437 9.93423 18.0264 9.96333 17.3437Z" fill="#3B82F6"/>
<path id="Vector_10" d="M9.96333 21.319C9.99243 20.6364 10.4801 20.347 11.0526 20.6727C11.6252 20.9983 12.0657 21.8157 12.0366 22.4983C12.0075 23.181 11.5199 23.4703 10.9473 23.1447C10.3748 22.819 9.93423 22.0017 9.96333 21.319Z" fill="#3B82F6"/>
<path id="Vector_11" d="M15.1397 19.921C15.1688 19.2384 15.6566 18.949 16.2292 19.2747C16.8016 19.6003 17.2421 20.4177 17.213 21.1003C17.1839 21.783 16.6963 22.0723 16.1237 21.7467C15.5512 21.421 15.1106 20.6037 15.1397 19.921Z" fill="#3B82F6"/>
<path id="Vector_12" d="M15.1397 23.8965C15.1688 23.2138 15.6566 22.9245 16.2292 23.2501C16.8016 23.5758 17.2421 24.3931 17.213 25.0758C17.1839 25.7584 16.6963 26.0478 16.1237 25.7221C15.5512 25.3965 15.1106 24.5791 15.1397 23.8965Z" fill="#3B82F6"/>
<path id="Vector_13" d="M4.78694 14.7432C4.81604 14.0605 5.30376 13.7712 5.8763 14.0968C6.44883 14.4225 6.88939 15.2398 6.86027 15.9225C6.83117 16.6051 6.34344 16.8945 5.77091 16.5688C5.19837 16.2432 4.75784 15.4258 4.78694 14.7432Z" fill="#3B82F6"/>
<path id="Vector_14" d="M4.78694 18.7186C4.81604 18.036 5.30376 17.7466 5.8763 18.0723C6.44883 18.3979 6.88939 19.2153 6.86027 19.8979C6.83117 20.5806 6.34344 20.8699 5.77091 20.5443C5.19837 20.2186 4.75784 19.4013 4.78694 18.7186Z" fill="#3B82F6"/>
</g>
</svg>
